<svg width="23" height="23" viewBox="0 0 23 23" fill="none" xmlns="http://www.w3.org/2000/svg">
<path d="M12.9374 3.83334C12.5562 3.83334 12.1905 3.98479 11.921 4.25438C11.6514 4.52396 11.4999 4.88959 11.4999 5.27084C11.4999 5.65209 11.6514 6.01773 11.921 6.28731C12.1905 6.55689 12.5562 6.70834 12.9374 6.70834C13.3187 6.70834 13.6843 6.55689 13.9539 6.28731C14.2235 6.01773 14.3749 5.65209 14.3749 5.27084C14.3749 4.88959 14.2235 4.52396 13.9539 4.25438C13.6843 3.98479 13.3187 3.83334 12.9374 3.83334ZM12.5924 8.40459C11.452 8.50043 8.33743 10.9825 8.33743 10.9825C8.14576 11.1263 8.20326 11.1167 8.35659 11.385C8.50993 11.6438 8.49076 11.6629 8.67284 11.5383C8.86451 11.4138 9.18076 11.2125 9.70784 10.8867C11.7395 9.58334 10.0337 12.5925 9.1616 17.6621C8.8166 20.1729 11.0783 18.8792 11.6628 18.4958C12.2378 18.1221 13.7808 17.0583 13.9341 16.9529C14.1449 16.8092 13.9916 16.6942 13.8287 16.4546C13.7137 16.2917 13.5987 16.4067 13.5987 16.4067C12.9758 16.8188 11.8353 17.6813 11.682 17.135C11.4999 16.5888 12.6691 12.8417 13.3112 10.2638C13.4166 9.65043 13.7041 8.30876 12.5924 8.40459Z" fill="#F9F6F0"/>
</svg>
