<svg width="32" height="32" viewBox="0 0 32 32" fill="none" xmlns="http://www.w3.org/2000/svg">
<path d="M10.2933 21.9413L12.6413 21.264L26.7786 6.95733C26.8901 6.84306 26.9522 6.68951 26.9515 6.52985C26.9507 6.37018 26.8872 6.21722 26.7746 6.104L25.928 5.248C25.8732 5.19178 25.8079 5.14702 25.7357 5.11634C25.6635 5.08566 25.5859 5.06966 25.5075 5.06929C25.429 5.06892 25.3513 5.08418 25.2788 5.11417C25.2063 5.14417 25.1405 5.1883 25.0853 5.244L10.9853 19.5133L10.292 21.94L10.2933 21.9413ZM27.604 3.552L28.4506 4.40933C29.6186 5.592 29.6293 7.5 28.472 8.67066L13.904 23.4147L8.88529 24.86C8.57889 24.9458 8.25097 24.9065 7.97351 24.7507C7.69604 24.595 7.49169 24.3356 7.40529 24.0293C7.341 23.8092 7.34008 23.5753 7.40263 23.3547L8.86263 18.2347L23.392 3.52933C23.6682 3.25114 23.9971 3.03075 24.3595 2.881C24.7218 2.73126 25.1104 2.65516 25.5024 2.65714C25.8945 2.65913 26.2822 2.73916 26.643 2.89257C27.0039 3.04598 27.3305 3.27102 27.604 3.552ZM12.2453 5.08933C12.9066 5.08933 13.4426 5.632 13.4426 6.30133C13.4437 6.45956 13.4135 6.61644 13.3539 6.763C13.2943 6.90957 13.2064 7.04295 13.0952 7.15551C12.984 7.26807 12.8517 7.35761 12.7058 7.41901C12.56 7.48041 12.4035 7.51246 12.2453 7.51333H7.45596C6.13329 7.51333 5.06129 8.59867 5.06129 9.936V24.4773C5.06129 25.816 6.13329 26.9013 7.45596 26.9013H21.824C23.1466 26.9013 24.22 25.816 24.22 24.4773V19.6307C24.22 18.9613 24.756 18.4187 25.4173 18.4187C26.0786 18.4187 26.6146 18.9613 26.6146 19.632V24.4773C26.6146 27.1547 24.4693 29.3253 21.824 29.3253H7.45596C4.81063 29.3253 2.66663 27.1547 2.66663 24.4773V9.936C2.66663 7.26 4.81063 5.08933 7.45596 5.08933H12.2453Z" fill="#F9F6F0"/>
</svg>
