<svg xmlns="http://www.w3.org/2000/svg" width="21" height="21" viewBox="0 0 21 21" fill="none">
  <path d="M10.1996 1.00623L10.3 1C10.7078 1 11.0444 1.30519 11.0938 1.69965L11.1 1.8V9.5H18.8C19.2078 9.5 19.5444 9.80519 19.5938 10.1996L19.6 10.3C19.6 10.7078 19.2948 11.0444 18.9004 11.0938L18.8 11.1H11.1V18.8C11.1 19.2078 10.7948 19.5444 10.4004 19.5938L10.3 19.6C9.89216 19.6 9.5556 19.2948 9.50623 18.9004L9.5 18.8V11.1H1.8C1.39216 11.1 1.0556 10.7948 1.00623 10.4004L1 10.3C1 9.89216 1.30519 9.5556 1.69965 9.50623L1.8 9.5H9.5V1.8C9.5 1.39216 9.80519 1.0556 10.1996 1.00623L10.3 1L10.1996 1.00623Z" fill="#F9F6F0"/>
  <path d="M10.1996 1.00623L10.3 1C10.7078 1 11.0444 1.30519 11.0938 1.69965L11.1 1.8V9.5H18.8C19.2078 9.5 19.5444 9.80519 19.5938 10.1996L19.6 10.3C19.6 10.7078 19.2948 11.0444 18.9004 11.0938L18.8 11.1H11.1V18.8C11.1 19.2078 10.7948 19.5444 10.4004 19.5938L10.3 19.6C9.89216 19.6 9.5556 19.2948 9.50623 18.9004L9.5 18.8V11.1H1.8C1.39216 11.1 1.0556 10.7948 1.00623 10.4004L1 10.3C1 9.89216 1.30519 9.5556 1.69965 9.50623L1.8 9.5H9.5V1.8C9.5 1.39216 9.80519 1.0556 10.1996 1.00623L10.3 1L10.1996 1.00623Z" stroke="#F9F6F0" stroke-width="2"/>
</svg>