<svg xmlns="http://www.w3.org/2000/svg" width="26" height="26" viewBox="0 0 26 26" fill="none">
  <path d="M18.5087 14.5578L18.0153 15.0485L17.5926 14.6233C18.0151 15.0486 18.0137 15.05 18.0137 15.05L18.0121 15.0515L18.0089 15.0548L18.0018 15.0616C17.997 15.0662 17.9916 15.0711 17.9859 15.0763C17.9745 15.0867 17.9615 15.0981 17.9468 15.1102C17.9174 15.1346 17.8813 15.1622 17.8379 15.1913C17.7513 15.2493 17.6366 15.3125 17.4928 15.3661C17.1993 15.4754 16.8124 15.5341 16.3326 15.4606C15.3937 15.3165 14.1497 14.6763 12.4955 13.0315C10.8418 11.3872 10.1962 10.149 10.0508 9.21164C9.9764 8.73232 10.0357 8.34523 10.1464 8.05159C10.2006 7.90768 10.2645 7.79325 10.3231 7.7067C10.3524 7.66353 10.3802 7.62745 10.4047 7.59814C10.417 7.58349 10.4285 7.57051 10.439 7.55916L10.4538 7.54336L10.4606 7.53636L10.4639 7.53309L10.4655 7.53151C10.4655 7.53151 10.467 7.53001 10.9841 8.05001L10.467 7.52996L10.7777 7.22101C11.242 6.75933 11.307 5.99294 10.8699 5.40904L9.5039 3.58426C8.95505 2.85113 7.93208 2.79283 7.3561 3.36556L5.6557 5.05631C5.29828 5.41168 5.12631 5.80335 5.14762 6.1783C5.23411 7.69995 5.92884 11.2074 10.1228 15.3776C14.5227 19.7525 18.5865 19.883 20.1572 19.7366C20.4781 19.7067 20.7973 19.54 21.095 19.2439L22.6339 17.7137C23.2595 17.0916 23.1214 15.9591 22.2355 15.4775L20.1658 14.3523C19.5943 14.0417 18.9247 14.1442 18.5087 14.5578Z" fill="white"/>
</svg>