<svg width="23" height="23" viewBox="0 0 23 23" fill="none" xmlns="http://www.w3.org/2000/svg">
<path d="M11.5 5.27084C12.3896 5.27084 13.2427 5.62423 13.8718 6.25326C14.5008 6.88228 14.8542 7.73543 14.8542 8.62501C14.8542 9.51459 14.5008 10.3677 13.8718 10.9968C13.2427 11.6258 12.3896 11.9792 11.5 11.9792C10.6104 11.9792 9.75727 11.6258 9.12825 10.9968C8.49922 10.3677 8.14583 9.51459 8.14583 8.62501C8.14583 7.73543 8.49922 6.88228 9.12825 6.25326C9.75727 5.62423 10.6104 5.27084 11.5 5.27084ZM4.79167 7.66668C5.32833 7.66668 5.82667 7.81043 6.25792 8.06918C6.11417 9.43959 6.51667 10.8004 7.34083 11.8642C6.86167 12.7842 5.90333 13.4167 4.79167 13.4167C4.02917 13.4167 3.2979 13.1138 2.75873 12.5746C2.21957 12.0354 1.91667 11.3042 1.91667 10.5417C1.91667 9.77918 2.21957 9.04791 2.75873 8.50874C3.2979 7.96958 4.02917 7.66668 4.79167 7.66668ZM18.2083 7.66668C18.9708 7.66668 19.7021 7.96958 20.2413 8.50874C20.7804 9.04791 21.0833 9.77918 21.0833 10.5417C21.0833 11.3042 20.7804 12.0354 20.2413 12.5746C19.7021 13.1138 18.9708 13.4167 18.2083 13.4167C17.0967 13.4167 16.1383 12.7842 15.6592 11.8642C16.4833 10.8004 16.8858 9.43959 16.7421 8.06918C17.1733 7.81043 17.6717 7.66668 18.2083 7.66668ZM5.27083 17.4896C5.27083 15.5058 8.05958 13.8958 11.5 13.8958C14.9404 13.8958 17.7292 15.5058 17.7292 17.4896V19.1667H5.27083V17.4896ZM0 19.1667V17.7292C0 16.3971 1.81125 15.2758 4.26458 14.95C3.69917 15.6017 3.35417 16.5025 3.35417 17.4896V19.1667H0ZM23 19.1667H19.6458V17.4896C19.6458 16.5025 19.3008 15.6017 18.7354 14.95C21.1887 15.2758 23 16.3971 23 17.7292V19.1667Z" fill="currentColor"/>
</svg>
