<svg width="22" height="22" viewBox="0 0 22 22" fill="none" xmlns="http://www.w3.org/2000/svg">
<path d="M10.0833 16.5H11.9166V14.6666H10.0833V16.5ZM10.9999 1.83331C9.79613 1.83331 8.60414 2.07042 7.49199 2.53108C6.37984 2.99175 5.36931 3.66696 4.51811 4.51817C2.79902 6.23725 1.83325 8.56883 1.83325 11C1.83325 13.4311 2.79902 15.7627 4.51811 17.4818C5.36931 18.333 6.37984 19.0082 7.49199 19.4689C8.60414 19.9295 9.79613 20.1666 10.9999 20.1666C13.4311 20.1666 15.7626 19.2009 17.4817 17.4818C19.2008 15.7627 20.1666 13.4311 20.1666 11C20.1666 9.7962 19.9295 8.6042 19.4688 7.49205C19.0081 6.3799 18.3329 5.36937 17.4817 4.51817C16.6305 3.66696 15.62 2.99175 14.5079 2.53108C13.3957 2.07042 12.2037 1.83331 10.9999 1.83331ZM10.9999 18.3333C6.95742 18.3333 3.66659 15.0425 3.66659 11C3.66659 6.95748 6.95742 3.66665 10.9999 3.66665C15.0424 3.66665 18.3333 6.95748 18.3333 11C18.3333 15.0425 15.0424 18.3333 10.9999 18.3333ZM10.9999 5.49998C10.0275 5.49998 9.09483 5.88629 8.40719 6.57392C7.71956 7.26155 7.33325 8.19419 7.33325 9.16665H9.16659C9.16659 8.68042 9.35974 8.2141 9.70356 7.87028C10.0474 7.52647 10.5137 7.33331 10.9999 7.33331C11.4861 7.33331 11.9525 7.52647 12.2963 7.87028C12.6401 8.2141 12.8333 8.68042 12.8333 9.16665C12.8333 11 10.0833 10.7708 10.0833 13.75H11.9166C11.9166 11.6875 14.6666 11.4583 14.6666 9.16665C14.6666 8.19419 14.2803 7.26155 13.5926 6.57392C12.905 5.88629 11.9724 5.49998 10.9999 5.49998Z" fill="currentColor"/>
</svg>
