<svg width="23" height="23" viewBox="0 0 23 23" fill="none" xmlns="http://www.w3.org/2000/svg">
<path d="M21.0833 16.2916H17.25V9.58331H21.0833M22.0417 7.66665H16.2917C16.0375 7.66665 15.7937 7.76761 15.614 7.94734C15.4343 8.12706 15.3333 8.37081 15.3333 8.62498V18.2083C15.3333 18.4625 15.4343 18.7062 15.614 18.886C15.7937 19.0657 16.0375 19.1666 16.2917 19.1666H22.0417C22.2958 19.1666 22.5396 19.0657 22.7193 18.886C22.899 18.7062 23 18.4625 23 18.2083V8.62498C23 8.37081 22.899 8.12706 22.7193 7.94734C22.5396 7.76761 22.2958 7.66665 22.0417 7.66665ZM3.83333 5.74998H21.0833V3.83331H3.83333C3.325 3.83331 2.83749 4.03525 2.47805 4.39469C2.1186 4.75414 1.91667 5.24165 1.91667 5.74998V16.2916H0V19.1666H13.4167V16.2916H3.83333V5.74998Z" fill="currentColor"/>
</svg>
