<svg width="157" height="158" viewBox="0 0 157 158" fill="none" xmlns="http://www.w3.org/2000/svg">
<circle cx="86.9999" cy="70" r="70" fill="#F9F6F0"/>
<path d="M20.3556 139.924C18.6506 140.746 16.8641 138.96 17.6857 137.255L38.4669 94.1266C39.0649 92.8857 40.7089 92.6066 41.6829 93.5806L64.0296 115.927C65.0036 116.901 64.7244 118.545 63.4835 119.143L20.3556 139.924Z" fill="#F9F6F0"/>
<path d="M87.3602 14.2487C87.4718 14.382 87.5829 14.5625 87.6934 14.79C87.8039 15.0176 87.8765 15.2636 87.9112 15.528C87.9753 16.0171 87.9089 16.3822 87.7119 16.6232C87.5166 16.8774 87.2405 17.0279 86.8836 17.0747L74.6483 18.6792C74.5499 18.5441 74.4455 18.3629 74.3349 18.1353C74.2112 17.9095 74.132 17.6643 74.0973 17.3999C74.0332 16.9108 74.0987 16.5391 74.294 16.2849C74.491 16.0439 74.768 15.9 75.1249 15.8532L87.3602 14.2487Z" fill="#212427"/>
<path d="M72.59 14.4906C72.7659 15.0223 72.7479 15.5198 72.5361 15.9831C72.3242 16.4464 71.9335 16.7723 71.3638 16.9608C70.7942 17.1493 70.2862 17.1207 69.8398 16.8752C69.3934 16.6296 69.0823 16.241 68.9064 15.7094C68.7305 15.1777 68.7485 14.6802 68.9604 14.2169C69.1722 13.7535 69.563 13.4276 70.1326 13.2392C70.7022 13.0507 71.2102 13.0792 71.6566 13.3248C72.103 13.5703 72.4141 13.9589 72.59 14.4906Z" fill="#212427"/>
<path d="M67.0767 18.1421C67.2296 18.2248 67.3995 18.3514 67.5862 18.5221C67.773 18.6927 67.9313 18.8945 68.0611 19.1274C68.3014 19.5583 68.3745 19.9221 68.2804 20.2188C68.1928 20.5272 67.9918 20.769 67.6774 20.9444L56.8998 26.9542C56.7585 26.865 56.5944 26.7351 56.4077 26.5645C56.2093 26.4003 56.0452 26.2018 55.9153 25.9689C55.675 25.538 55.5987 25.1684 55.6863 24.86C55.7804 24.5633 55.9846 24.3273 56.299 24.1519L67.0767 18.1421Z" fill="#212427"/>
<path d="M53.428 23.8299C53.7872 24.2595 53.9536 24.7286 53.9271 25.2374C53.9007 25.7462 53.6573 26.1931 53.1971 26.578C52.7368 26.9629 52.2539 27.1233 51.7485 27.0593C51.2431 26.9953 50.8108 26.7485 50.4515 26.3189C50.0923 25.8893 49.9259 25.4201 49.9524 24.9113C49.9788 24.4025 50.2222 23.9557 50.6824 23.5708C51.1427 23.1859 51.6256 23.0254 52.131 23.0894C52.6364 23.1535 53.0687 23.4003 53.428 23.8299Z" fill="#212427"/>
<path d="M44.2956 32.3554C44.7393 32.697 45.0034 33.119 45.0877 33.6214C45.1721 34.1239 45.0313 34.6128 44.6653 35.0883C44.2993 35.5637 43.8626 35.8249 43.3553 35.8719C42.8481 35.9188 42.3725 35.7715 41.9288 35.4299C41.4851 35.0883 41.221 34.6663 41.1367 34.1638C41.0523 33.6614 41.1931 33.1724 41.5591 32.697C41.9251 32.2216 42.3617 31.9604 42.869 31.9134C43.3763 31.8664 43.8518 32.0138 44.2956 32.3554Z" fill="#212427"/>
<path d="M40.3093 37.562C40.7892 37.8505 41.0999 38.2395 41.2413 38.7289C41.3827 39.2184 41.2988 39.7203 40.9897 40.2345C40.6806 40.7488 40.2768 41.0583 39.7782 41.1631C39.2797 41.2679 38.7904 41.176 38.3104 40.8875C37.8305 40.599 37.5198 40.21 37.3784 39.7206C37.237 39.2311 37.3209 38.7292 37.63 38.215C37.9391 37.7007 38.3429 37.3912 38.8415 37.2864C39.34 37.1816 39.8293 37.2735 40.3093 37.562Z" fill="#212427"/>
<path d="M34.4797 48.5897C35.0112 48.7663 35.3994 49.0779 35.6444 49.5246C35.8893 49.9713 35.9173 50.4794 35.7281 51.0488C35.5389 51.6182 35.2125 52.0085 34.7489 52.2198C34.2854 52.431 33.7878 52.4484 33.2564 52.2718C32.725 52.0953 32.3368 51.7836 32.0918 51.3369C31.8468 50.8902 31.8189 50.3822 32.008 49.8128C32.1972 49.2434 32.5236 48.853 32.9872 48.6418C33.4508 48.4305 33.9483 48.4131 34.4797 48.5897Z" fill="#212427"/>
<path d="M34.1155 55.1892C34.2731 55.1159 34.4762 55.0554 34.7246 55.0076C34.973 54.9598 35.2294 54.9534 35.4938 54.9884C35.9828 55.0531 36.3182 55.2119 36.5 55.4646C36.6949 55.719 36.7688 56.0247 36.7215 56.3816L35.102 68.6148C34.9461 68.6749 34.7439 68.7288 34.4955 68.7766C34.2453 68.8377 33.988 68.8507 33.7237 68.8157C33.2346 68.7509 32.8926 68.5913 32.6976 68.3368C32.5159 68.0841 32.4487 67.7793 32.4959 67.4225L34.1155 55.1892Z" fill="#212427"/>
<path d="M30.5202 69.6488C31.0793 69.6173 31.555 69.7641 31.9472 70.0892C32.3395 70.4143 32.5524 70.8764 32.5862 71.4755C32.6199 72.0745 32.4602 72.5576 32.107 72.9247C31.7537 73.2918 31.2975 73.4911 30.7384 73.5226C30.1793 73.5541 29.7036 73.4073 29.3114 73.0822C28.9191 72.7571 28.7061 72.295 28.6724 71.696C28.6387 71.0969 28.7984 70.6138 29.1516 70.2467C29.5049 69.8796 29.9611 69.6803 30.5202 69.6488Z" fill="#212427"/>
<path d="M31.901 82.0536C32.4398 81.901 32.936 81.9405 33.3897 82.1723C33.8434 82.4041 34.152 82.8086 34.3156 83.3859C34.4791 83.9631 34.4286 84.4694 34.1639 84.9047C33.8992 85.3401 33.4974 85.634 32.9586 85.7867C32.4198 85.9394 31.9236 85.8998 31.4699 85.668C31.0162 85.4363 30.7076 85.0318 30.544 84.4545C30.3805 83.8772 30.4311 83.3709 30.6958 82.9356C30.9605 82.5003 31.3622 82.2063 31.901 82.0536Z" fill="#212427"/>
<path d="M33.698 88.3357C34.2155 88.1219 34.713 88.1039 35.1904 88.2818C35.6678 88.4596 36.0211 88.8259 36.2502 89.3804C36.4792 89.935 36.4874 90.4437 36.2747 90.9066C36.062 91.3696 35.6969 91.708 35.1793 91.9218C34.6617 92.1356 34.1642 92.1536 33.6868 91.9757C33.2094 91.7979 32.8562 91.4317 32.6271 90.8771C32.3981 90.3226 32.3899 89.8138 32.6026 89.3509C32.8153 88.8879 33.1804 88.5495 33.698 88.3357Z" fill="#212427"/>
<path d="M36.2245 94.4026C36.7139 94.1303 37.2059 94.0549 37.7007 94.1764C38.1955 94.2979 38.5887 94.6208 38.8804 95.1451C39.172 95.6694 39.239 96.1738 39.0813 96.6583C38.9236 97.1427 38.6 97.521 38.1106 97.7933C37.6213 98.0655 37.1292 98.1409 36.6344 98.0195C36.1396 97.898 35.7464 97.5751 35.4548 97.0508C35.1631 96.5264 35.0961 96.022 35.2538 95.5376C35.4116 95.0531 35.7351 94.6748 36.2245 94.4026Z" fill="#212427"/>
<path d="M39.4245 100.119C39.8794 99.7928 40.3596 99.6615 40.865 99.7254C41.3704 99.7894 41.7981 100.065 42.148 100.552C42.4978 101.04 42.6222 101.533 42.5211 102.033C42.4199 102.532 42.1419 102.945 41.687 103.271C41.232 103.598 40.7519 103.729 40.2464 103.665C39.741 103.602 39.3134 103.326 38.9635 102.838C38.6136 102.351 38.4892 101.858 38.5904 101.358C38.6915 100.859 38.9696 100.446 39.4245 100.119Z" fill="#212427"/>
<path d="M47.2553 109.857C47.6287 109.44 48.069 109.208 48.5763 109.161C49.0835 109.113 49.5607 109.29 50.0079 109.69C50.4551 110.09 50.6834 110.545 50.6929 111.054C50.7023 111.564 50.5204 112.027 50.147 112.444C49.7736 112.862 49.3333 113.094 48.826 113.141C48.3188 113.188 47.8415 113.012 47.3944 112.612C46.9472 112.212 46.7189 111.757 46.7094 111.247C46.7 110.738 46.8819 110.275 47.2553 109.857Z" fill="#212427"/>
<path d="M57.0028 117.663C57.2766 117.175 57.656 116.852 58.1409 116.696C58.6258 116.54 59.13 116.609 59.6534 116.902C60.1767 117.195 60.4984 117.59 60.6182 118.085C60.7381 118.58 60.6611 119.072 60.3872 119.56C60.1134 120.049 59.734 120.371 59.2491 120.527C58.7642 120.683 58.26 120.615 57.7366 120.321C57.2133 120.028 56.8916 119.634 56.7718 119.139C56.652 118.643 56.7289 118.152 57.0028 117.663Z" fill="#212427"/>
<path d="M63.4168 119.272C63.3746 119.103 63.3535 118.892 63.3535 118.64C63.3535 118.387 63.3957 118.134 63.48 117.881C63.6361 117.413 63.8553 117.113 64.1378 116.982C64.4245 116.839 64.7386 116.824 65.0802 116.938L76.7868 120.841C76.8163 121.005 76.831 121.214 76.831 121.467C76.8437 121.724 76.8078 121.979 76.7235 122.232C76.5675 122.7 76.3461 123.006 76.0594 123.149C75.7769 123.28 75.4649 123.289 75.1234 123.175L63.4168 119.272Z" fill="#212427"/>
<path d="M76.8093 125.505C76.8834 124.95 77.1169 124.51 77.5099 124.186C77.9029 123.862 78.3967 123.74 78.9915 123.819C79.5862 123.898 80.0307 124.146 80.3249 124.562C80.6192 124.978 80.7293 125.463 80.6552 126.018C80.5812 126.573 80.3477 127.013 79.9547 127.337C79.5617 127.661 79.0678 127.784 78.4731 127.705C77.8783 127.625 77.4339 127.378 77.1396 126.962C76.8454 126.546 76.7353 126.06 76.8093 125.505Z" fill="#212427"/>
<path d="M89.2548 124.753C89.1394 124.623 89.0231 124.446 88.9061 124.222C88.789 123.997 88.7094 123.754 88.6671 123.49C88.5889 123.003 88.6447 122.636 88.8347 122.39C89.0226 122.13 89.2942 121.972 89.6497 121.915L101.834 119.958C101.936 120.09 102.045 120.268 102.162 120.492C102.293 120.715 102.379 120.957 102.421 121.221C102.499 121.708 102.445 122.081 102.257 122.341C102.067 122.587 101.794 122.739 101.439 122.796L89.2548 124.753Z" fill="#212427"/>
<path d="M104.018 124.082C103.826 123.556 103.83 123.058 104.028 122.589C104.226 122.12 104.607 121.782 105.171 121.577C105.735 121.372 106.244 121.386 106.697 121.619C107.151 121.851 107.473 122.23 107.664 122.757C107.856 123.283 107.852 123.781 107.654 124.25C107.456 124.719 107.075 125.057 106.511 125.262C105.947 125.467 105.438 125.453 104.985 125.22C104.531 124.988 104.209 124.609 104.018 124.082Z" fill="#212427"/>
<path d="M109.426 120.269C109.271 120.191 109.097 120.069 108.906 119.904C108.714 119.739 108.55 119.542 108.414 119.313C108.161 118.889 108.077 118.527 108.163 118.228C108.241 117.917 108.435 117.67 108.744 117.485L119.343 111.165C119.487 111.25 119.654 111.375 119.846 111.54C120.049 111.699 120.219 111.892 120.356 112.121C120.608 112.545 120.695 112.912 120.617 113.223C120.531 113.522 120.334 113.764 120.025 113.949L109.426 120.269Z" fill="#212427"/>
<path d="M122.907 114.186C122.535 113.767 122.355 113.303 122.367 112.793C122.379 112.284 122.609 111.83 123.058 111.432C123.507 111.034 123.985 110.86 124.492 110.909C124.999 110.959 125.438 111.193 125.81 111.612C126.181 112.031 126.361 112.495 126.349 113.004C126.338 113.514 126.107 113.967 125.658 114.366C125.209 114.764 124.731 114.938 124.224 114.888C123.717 114.839 123.278 114.605 122.907 114.186Z" fill="#212427"/>
<path d="M131.79 105.399C131.337 105.07 131.061 104.656 130.962 104.156C130.863 103.656 130.989 103.164 131.342 102.678C131.694 102.192 132.123 101.918 132.628 101.856C133.134 101.795 133.614 101.928 134.067 102.257C134.52 102.586 134.797 103 134.895 103.5C134.994 103.999 134.868 104.492 134.516 104.978C134.164 105.464 133.735 105.738 133.229 105.799C132.723 105.861 132.244 105.727 131.79 105.399Z" fill="#212427"/>
<path d="M135.621 100.083C135.133 99.8088 134.811 99.429 134.656 98.9438C134.5 98.4587 134.569 97.9546 134.863 97.4316C135.158 96.9086 135.552 96.5875 136.047 96.4682C136.543 96.349 137.035 96.4266 137.523 96.7011C138.011 96.9755 138.333 97.3553 138.488 97.8405C138.644 98.3256 138.574 98.8297 138.28 99.3527C137.986 99.8757 137.592 100.197 137.096 100.316C136.601 100.435 136.109 100.358 135.621 100.083Z" fill="#212427"/>
<path d="M141.128 88.8897C140.591 88.7288 140.194 88.4286 139.936 87.9893C139.678 87.5499 139.636 87.0429 139.808 86.4682C139.98 85.8935 140.295 85.4938 140.752 85.2691C141.21 85.0443 141.706 85.0124 142.243 85.1734C142.779 85.3343 143.176 85.6345 143.434 86.0738C143.692 86.5131 143.735 87.0201 143.563 87.5948C143.39 88.1695 143.075 88.5692 142.618 88.794C142.161 89.0187 141.664 89.0506 141.128 88.8897Z" fill="#212427"/>
<path d="M141.297 82.2843C141.141 82.3621 140.94 82.4285 140.693 82.4835C140.446 82.5385 140.19 82.5523 139.925 82.5249C139.434 82.4744 139.094 82.3254 138.905 82.078C138.703 81.8293 138.621 81.5259 138.657 81.1678L139.923 68.8928C140.077 68.8283 140.277 68.7686 140.524 68.7136C140.773 68.6454 141.029 68.6249 141.295 68.6523C141.785 68.7028 142.132 68.8525 142.334 69.1012C142.523 69.3486 142.599 69.6513 142.562 70.0094L141.297 82.2843Z" fill="#212427"/>
<path d="M144.475 67.7112C143.917 67.7589 143.437 67.6259 143.036 67.3123C142.634 66.9987 142.408 66.543 142.357 65.9452C142.306 65.3474 142.452 64.8598 142.794 64.4826C143.136 64.1054 143.587 63.893 144.145 63.8453C144.703 63.7976 145.182 63.9306 145.584 64.2442C145.985 64.5578 146.212 65.0135 146.263 65.6113C146.314 66.2092 146.168 66.6967 145.826 67.0739C145.483 67.4511 145.033 67.6635 144.475 67.7112Z" fill="#212427"/>
<path d="M142.735 55.3617C142.201 55.5301 141.704 55.5051 141.244 55.2867C140.783 55.0683 140.463 54.673 140.283 54.1008C140.102 53.5286 140.138 53.021 140.39 52.5781C140.641 52.1352 141.034 51.8296 141.569 51.6612C142.103 51.4928 142.6 51.5178 143.06 51.7362C143.52 51.9545 143.841 52.3498 144.021 52.9221C144.202 53.4943 144.166 54.0019 143.914 54.4448C143.662 54.8876 143.269 55.1933 142.735 55.3617Z" fill="#212427"/>
<path d="M140.754 49.134C140.243 49.3629 139.746 49.3954 139.264 49.2316C138.782 49.0678 138.418 48.7121 138.173 48.1645C137.927 47.6169 137.904 47.1086 138.103 46.6396C138.302 46.1706 138.658 45.8217 139.169 45.5928C139.68 45.3639 140.176 45.3314 140.659 45.4952C141.141 45.659 141.505 46.0147 141.75 46.5624C141.995 47.11 142.019 47.6183 141.82 48.0872C141.62 48.5562 141.265 48.9051 140.754 49.134Z" fill="#212427"/>
<path d="M138.053 43.1475C137.572 43.4338 137.082 43.5235 136.584 43.4164C136.086 43.3094 135.684 42.9981 135.377 42.4824C135.07 41.9668 134.988 41.4645 135.132 40.9757C135.276 40.4869 135.588 40.0993 136.069 39.813C136.551 39.5267 137.04 39.437 137.538 39.544C138.036 39.6511 138.439 39.9624 138.746 40.4781C139.052 40.9937 139.134 41.4959 138.99 41.9848C138.847 42.4736 138.534 42.8612 138.053 43.1475Z" fill="#212427"/>
<path d="M134.685 37.5221C134.24 37.8617 133.764 38.0069 133.257 37.9576C132.75 37.9084 132.314 37.6452 131.95 37.1681C131.587 36.691 131.448 36.2015 131.535 35.6994C131.621 35.1974 131.887 34.7765 132.332 34.4369C132.778 34.0973 133.254 33.9521 133.761 34.0014C134.268 34.0506 134.703 34.3138 135.067 34.7909C135.431 35.2679 135.57 35.7575 135.483 36.2596C135.396 36.7616 135.131 37.1825 134.685 37.5221Z" fill="#212427"/>
<path d="M126.578 28.0165C126.217 28.4445 125.783 28.6894 125.277 28.7511C124.772 28.8129 124.29 28.6502 123.831 28.2633C123.372 27.8763 123.131 27.4284 123.107 26.9195C123.083 26.4106 123.251 25.9421 123.612 25.5141C123.974 25.0862 124.407 24.8413 124.913 24.7796C125.418 24.7178 125.901 24.8804 126.359 25.2674C126.818 25.6544 127.059 26.1023 127.083 26.6112C127.107 27.1201 126.939 27.5886 126.578 28.0165Z" fill="#212427"/>
<path d="M116.609 20.4962C116.35 20.9924 115.98 21.3257 115.5 21.4959C115.02 21.6661 114.514 21.6122 113.982 21.3341C113.45 21.0561 113.117 20.6714 112.983 20.1799C112.849 19.6884 112.911 19.1945 113.171 18.6983C113.43 18.202 113.8 17.8688 114.28 17.6986C114.761 17.5284 115.267 17.5823 115.798 17.8603C116.33 18.1384 116.663 18.5231 116.797 19.0146C116.931 19.5061 116.869 19.9999 116.609 20.4962Z" fill="#212427"/>
<path d="M110.153 19.0756C110.2 19.243 110.228 19.4531 110.235 19.706C110.242 19.9589 110.208 20.213 110.131 20.4683C109.989 20.9407 109.778 21.2463 109.5 21.3852C109.217 21.5369 108.904 21.5608 108.559 21.457L96.7431 17.8986C96.7088 17.7351 96.688 17.5269 96.6806 17.274C96.6604 17.0173 96.6888 16.7612 96.7657 16.5059C96.9079 16.0335 97.1203 15.7215 97.4027 15.5698C97.6812 15.4309 97.9928 15.4134 98.3375 15.5172L110.153 19.0756Z" fill="#212427"/>
<path d="M96.5872 13.2375C96.5292 13.7945 96.3085 14.2407 95.925 14.5762C95.5416 14.9116 95.0515 15.0483 94.4547 14.9861C93.8579 14.924 93.4064 14.6893 93.1003 14.2821C92.7941 13.8749 92.6701 13.3928 92.728 12.8358C92.786 12.2788 93.0067 11.8326 93.3902 11.4972C93.7736 11.1617 94.2637 11.0251 94.8605 11.0872C95.4573 11.1493 95.9088 11.384 96.2149 11.7912C96.5211 12.1984 96.6452 12.6805 96.5872 13.2375Z" fill="#212427"/>
</svg>
