<svg width="25" height="25" viewBox="0 0 25 25" fill="none" xmlns="http://www.w3.org/2000/svg">
<path d="M8.85417 14.0625C8.85417 14.0625 10.4413 15.9671 11.4583 17.1875C12.8821 15.3569 13.6804 14.3306 15.1042 12.5C16.9347 14.9408 17.9611 16.3092 19.7917 18.75C14.0965 18.75 10.9035 18.75 5.20833 18.75M21.875 19.7917V5.20833C21.875 4.05208 20.9375 3.125 19.7917 3.125H5.20833C4.6558 3.125 4.12589 3.34449 3.73519 3.73519C3.34449 4.12589 3.125 4.6558 3.125 5.20833V19.7917C3.125 20.3442 3.34449 20.8741 3.73519 21.2648C4.12589 21.6555 4.6558 21.875 5.20833 21.875H19.7917C20.3442 21.875 20.8741 21.6555 21.2648 21.2648C21.6555 20.8741 21.875 20.3442 21.875 19.7917Z" fill="#F9F6F0"/>
</svg>
