<svg width="23" height="23" viewBox="0 0 23 23" fill="none" xmlns="http://www.w3.org/2000/svg">
<path d="M7.80365 4.5722C7.71655 4.38709 7.57858 4.23058 7.40585 4.12096C7.23312 4.01134 7.03276 3.95312 6.82818 3.95312C6.6236 3.95312 6.42324 4.01134 6.25051 4.12096C6.07778 4.23058 5.93981 4.38709 5.85271 4.5722L0.102707 16.791C-0.018748 17.0496 -0.0325354 17.3459 0.0643746 17.6148C0.161285 17.8836 0.360963 18.103 0.619528 18.2246C0.878094 18.3463 1.17439 18.3604 1.4433 18.2637C1.71222 18.167 1.93175 17.9675 2.05365 17.709L3.45351 14.7344H10.2028L11.6027 17.709C11.7246 17.9675 11.9441 18.167 12.213 18.2637C12.482 18.3604 12.7783 18.3463 13.0368 18.2246C13.2954 18.103 13.4951 17.8836 13.592 17.6148C13.6889 17.3459 13.6751 17.0496 13.5536 16.791L7.80365 4.5722ZM4.46824 12.5781L6.82818 7.56328L9.18811 12.5781H4.46824ZM18.3282 8.16683C17.4648 8.1604 16.6206 8.42158 15.9116 8.91445C15.6778 9.07881 15.5188 9.32927 15.4696 9.61079C15.4204 9.89231 15.485 10.1818 15.6492 10.4158C15.8134 10.6497 16.0637 10.8089 16.3452 10.8583C16.6267 10.9077 16.9162 10.8434 17.1503 10.6794C17.4975 10.4436 17.9084 10.3193 18.3282 10.3231C19.319 10.3231 20.1251 10.968 20.1251 11.7606V11.8845C19.5604 11.6295 18.9477 11.4984 18.3282 11.5C16.1484 11.5 14.3751 13.0718 14.3751 15.0039C14.3751 16.936 16.1484 18.5078 18.3282 18.5078C19.056 18.5107 19.7728 18.3291 20.4114 17.9799C20.5582 18.1397 20.7499 18.2514 20.9613 18.3003C21.1726 18.3493 21.3939 18.3333 21.596 18.2544C21.7981 18.1755 21.9717 18.0374 22.094 17.8582C22.2162 17.6789 22.2815 17.467 22.2813 17.25V11.7606C22.2813 9.77902 20.5079 8.16683 18.3282 8.16683ZM18.3282 16.3516C17.3542 16.3516 16.5313 15.7344 16.5313 15.0039C16.5313 14.2734 17.3542 13.6563 18.3282 13.6563C19.3022 13.6563 20.1251 14.2734 20.1251 15.0039C20.1251 15.7344 19.3022 16.3516 18.3282 16.3516Z" fill="#F9F6F0"/>
</svg>
