<svg width="23" height="23" viewBox="0 0 23 23" fill="none" xmlns="http://www.w3.org/2000/svg">
<path d="M20.125 18.2084V19.1667H2.875V18.2084L4.79167 16.2917V10.5417C4.79167 7.57085 6.73708 4.9546 9.58333 4.11127C9.58333 4.01544 9.58333 3.92919 9.58333 3.83335C9.58333 3.32502 9.78527 2.83751 10.1447 2.47807C10.5042 2.11862 10.9917 1.91669 11.5 1.91669C12.0083 1.91669 12.4958 2.11862 12.8553 2.47807C13.2147 2.83751 13.4167 3.32502 13.4167 3.83335C13.4167 3.92919 13.4167 4.01544 13.4167 4.11127C16.2629 4.9546 18.2083 7.57085 18.2083 10.5417V16.2917L20.125 18.2084ZM13.4167 20.125C13.4167 20.6334 13.2147 21.1209 12.8553 21.4803C12.4958 21.8398 12.0083 22.0417 11.5 22.0417C10.9917 22.0417 10.5042 21.8398 10.1447 21.4803C9.78527 21.1209 9.58333 20.6334 9.58333 20.125" fill="currentColor"/>
</svg>
