<svg width="22" height="22" viewBox="0 0 22 22" fill="none" xmlns="http://www.w3.org/2000/svg">
<path d="M11 0.916687L2.75 4.58335V10.0834C2.75 15.1709 6.27 19.9284 11 21.0834C15.73 19.9284 19.25 15.1709 19.25 10.0834V4.58335L11 0.916687ZM11 6.41669C12.2833 6.41669 13.5667 7.42502 13.5667 8.70835V10.0834C14.1167 10.0834 14.6667 10.6334 14.6667 11.275V14.4834C14.6667 15.0334 14.1167 15.5834 13.475 15.5834H8.43333C7.88333 15.5834 7.33333 15.0334 7.33333 14.3917V11.1834C7.33333 10.6334 7.88333 10.0834 8.43333 10.0834V8.70835C8.43333 7.42502 9.71667 6.41669 11 6.41669ZM11 7.51669C10.2667 7.51669 9.625 7.97502 9.625 8.70835V10.0834H12.375V8.70835C12.375 7.97502 11.7333 7.51669 11 7.51669Z" fill="currentColor"/>
</svg>
