<svg xmlns="http://www.w3.org/2000/svg" width="25" height="22" viewBox="0 0 25 22" fill="none">
<path d="M3.07568 2.52646C2.88847 2.5813 2.7362 2.71191 2.65966 2.88331C2.65858 2.90267 2.64383 3.05529 2.75009 3.48462C2.88117 4.01419 3.12883 4.72737 3.49903 5.78759L4.87895 9.73955H11.9127C12.6469 9.73956 13.2421 10.3053 13.2421 11.0032C13.2421 11.7011 12.6469 12.2669 11.9127 12.2669H4.91057C4.89357 12.3153 4.87645 12.3635 4.85947 12.4117L3.52376 16.2046C3.1496 17.267 2.89918 17.982 2.76621 18.5129C2.65855 18.9428 2.67272 19.0961 2.67376 19.1159C2.74997 19.2874 2.90206 19.4183 3.08943 19.4735C3.11003 19.4725 3.2719 19.4708 3.71156 19.326C4.18629 19.1697 4.79951 18.9142 5.66547 18.5448L19.9024 12.4548C20.747 12.0926 21.3388 11.8327 21.7655 11.6043C22.1488 11.3993 22.2595 11.2887 22.2784 11.2699L22.2798 11.2685C22.3617 11.1003 22.3617 10.9061 22.2798 10.7378L22.2784 10.7365C22.2595 10.7176 22.1488 10.607 21.7655 10.402C21.2778 10.1411 20.5745 9.83888 19.5248 9.38984L6.02912 3.61697C4.95744 3.15855 4.23639 2.85147 3.6956 2.67339C3.25772 2.52921 3.09636 2.52741 3.07568 2.52646Z" fill="#648BCE"/>
<path d="M3.07568 2.52646C2.88847 2.5813 2.7362 2.71191 2.65966 2.88331C2.65858 2.90267 2.64383 3.05529 2.75009 3.48462C2.88117 4.01419 3.12883 4.72737 3.49903 5.78759L4.87895 9.73955H11.9127C12.6469 9.73956 13.2421 10.3053 13.2421 11.0032C13.2421 11.7011 12.6469 12.2669 11.9127 12.2669H4.91057L4.85947 12.4117L3.52376 16.2046C3.1496 17.267 2.89918 17.982 2.76621 18.5129C2.65855 18.9428 2.67272 19.0961 2.67376 19.1159C2.74997 19.2874 2.90206 19.4183 3.08943 19.4735C3.11003 19.4725 3.2719 19.4708 3.71156 19.326C4.18629 19.1697 4.79951 18.9142 5.66547 18.5448L19.9024 12.4548C20.747 12.0926 21.3388 11.8327 21.7655 11.6043C22.1488 11.3993 22.2595 11.2887 22.2784 11.2699L22.2798 11.2685C22.3617 11.1003 22.3617 10.9061 22.2798 10.7378L22.2784 10.7365C22.2595 10.7176 22.1488 10.607 21.7655 10.402C21.2778 10.1411 20.5745 9.83888 19.5248 9.38984L6.02912 3.61697C4.95744 3.15855 4.23639 2.85147 3.6956 2.67339C3.25772 2.52921 3.09636 2.52741 3.07568 2.52646Z" fill="#648BCE"/>
<path d="M4.56586 0.285271C3.92926 0.0756552 3.17045 -0.109985 2.41647 0.0774678L2.3806 0.0866862C1.3904 0.348593 0.584306 1.03095 0.195704 1.93359L0.177515 1.97676C-0.112701 2.68015 0.00522819 3.43016 0.161976 4.06345C0.323642 4.71661 0.610421 5.53785 0.954643 6.52359L0.975647 6.58374C2.08588 8.95937 3.125 9.73955 4.87895 9.73955L3.49903 5.78759C3.12883 4.72737 2.88117 4.01419 2.75009 3.48462C2.64383 3.05529 2.65858 2.90267 2.65966 2.88331C2.7362 2.71191 2.88847 2.5813 3.07568 2.52646C3.09636 2.52741 3.25772 2.52921 3.6956 2.67339C4.23639 2.85147 4.95744 3.15855 6.02912 3.61697L19.5248 9.38984C20.5745 9.83888 21.2778 10.1411 21.7655 10.402C22.1488 10.607 22.2595 10.7176 22.2784 10.7365L22.2798 10.7378C22.3617 10.9061 22.3617 11.1003 22.2798 11.2685L22.2784 11.2699C22.2595 11.2887 22.1488 11.3993 21.7655 11.6043C21.3388 11.8327 20.747 12.0926 19.9024 12.4548L5.66547 18.5448C4.79951 18.9142 4.18629 19.1697 3.71156 19.326C3.2719 19.4708 3.11003 19.4725 3.08943 19.4735C2.90206 19.4183 2.74997 19.2874 2.67376 19.1159C2.67272 19.0961 2.65855 18.9428 2.76621 18.5129C2.89918 17.982 3.1496 17.267 3.52376 16.2046L4.85947 12.4117L4.91057 12.2669C2.86719 12.2669 1.98836 13.0068 0.982059 15.4604C0.633768 16.4493 0.343721 17.2728 0.179735 17.9276C0.0234281 18.5517 -0.0957386 19.2896 0.17662 19.9851L0.189862 20.0181C0.569824 20.944 1.38614 21.6457 2.39276 21.9129C3.15959 22.1163 3.93412 21.9275 4.58198 21.7141C5.2505 21.4939 6.08287 21.1379 7.08223 20.7104L7.14342 20.6842L20.9835 14.7639C21.8227 14.4043 22.5296 14.0957 23.0695 13.8069C23.6582 13.4919 24.3076 13.0727 24.6558 12.4032C25.1076 11.5346 25.1146 10.5176 24.6769 9.64433L24.6557 9.60287C24.3075 8.93356 23.6582 8.51443 23.0696 8.19952C22.4646 7.87589 21.6501 7.5275 20.6748 7.11032L20.6158 7.08509L7.12016 1.31222L7.06109 1.28694C6.06394 0.860383 5.23323 0.505022 4.56586 0.285271Z" fill="#648BCE"/>
</svg>