<svg width="25" height="25" viewBox="0 0 25 25" fill="none" xmlns="http://www.w3.org/2000/svg">
<path fill-rule="evenodd" clip-rule="evenodd" d="M4.16658 12.5C4.16658 7.8976 7.89754 4.16665 12.4999 4.16665C13.0752 4.16665 13.5416 3.70027 13.5416 3.12498C13.5416 2.54969 13.0752 2.08331 12.4999 2.08331C6.74695 2.08331 2.08325 6.74701 2.08325 12.5C2.08325 18.2529 6.74695 22.9166 12.4999 22.9166C15.3761 22.9166 17.9817 21.7496 19.8656 19.8657C20.2724 19.4588 20.2724 18.7994 19.8656 18.3926C19.4588 17.9857 18.7993 17.9857 18.3925 18.3926C16.8833 19.9018 14.8014 20.8333 12.4999 20.8333C7.89754 20.8333 4.16658 17.1024 4.16658 12.5ZM13.5416 6.24998C13.5416 5.67469 13.0752 5.20831 12.4999 5.20831C11.9246 5.20831 11.4583 5.67469 11.4583 6.24998V12.5C11.4583 12.7762 11.568 13.0412 11.7634 13.2365L14.8884 16.3615C15.2951 16.7683 15.9547 16.7683 16.3615 16.3615C16.7682 15.9548 16.7682 15.2952 16.3615 14.8884L13.5416 12.0685V6.24998ZM22.6544 15.7994C22.4322 16.4833 21.6976 16.8576 21.0137 16.6354C20.3298 16.4131 19.9555 15.6785 20.1777 14.9947C20.3999 14.3107 21.1345 13.9364 21.8185 14.1586C22.5023 14.3809 22.8767 15.1154 22.6544 15.7994ZM21.9631 12.3195C22.6735 12.207 23.158 11.54 23.0455 10.8298C22.933 10.1195 22.2661 9.63488 21.5559 9.74738C20.8455 9.85986 20.361 10.5269 20.4735 11.2372C20.586 11.9474 21.2529 12.432 21.9631 12.3195ZM21.1378 6.22417C21.5605 6.80595 21.4316 7.62023 20.8498 8.04292C20.268 8.4656 19.4538 8.33664 19.0311 7.75485C18.6084 7.17307 18.7373 6.35879 19.3191 5.9361C19.9009 5.51342 20.7152 5.64239 21.1378 6.22417ZM17.9163 4.73794C18.2427 4.0972 17.9879 3.31311 17.3472 2.98664C16.7065 2.66017 15.9224 2.91493 15.596 3.55567C15.2695 4.19642 15.5242 4.98049 16.165 5.30697C16.8057 5.63344 17.5898 5.37868 17.9163 4.73794Z" fill="#F9F6F0"/>
</svg>
